<svg width="14" height="15" viewBox="0 0 14 15" fill="none" xmlns="http://www.w3.org/2000/svg">
<path d="M6.98361 0.681659H6.6836C6.30704 0.681659 5.98563 0.814794 5.71936 1.08106C5.45309 1.34733 5.31995 1.66875 5.31995 2.04531V2.16804C5.3197 2.41138 5.25869 2.63839 5.13691 2.84907C5.01513 3.05975 4.84887 3.22593 4.63813 3.3476L4.34494 3.51805C4.13398 3.63985 3.90671 3.70075 3.66311 3.70075C3.41952 3.70075 3.19225 3.63985 2.98129 3.51805L2.87901 3.46351C2.55324 3.27559 2.20869 3.2302 1.84537 3.32735C1.48204 3.42451 1.20613 3.6358 1.01763 3.96124L0.867629 4.22034C0.679706 4.54611 0.634321 4.89066 0.731474 5.25398C0.828626 5.61731 1.03992 5.89322 1.36536 6.08172L1.46764 6.1499C1.67733 6.27096 1.84302 6.43615 1.96472 6.64547C2.08642 6.8548 2.148 7.08052 2.14946 7.32264V7.67037C2.15043 7.91494 2.08999 8.14323 1.96813 8.35527C1.84626 8.56731 1.67943 8.73447 1.46764 8.85675L1.36536 8.91812C1.03992 9.10662 0.828626 9.38253 0.731473 9.74585C0.63432 10.1092 0.679706 10.4537 0.867629 10.7795L1.01763 11.0386C1.20613 11.364 1.48204 11.5753 1.84537 11.6725C2.20869 11.7696 2.55324 11.7242 2.87901 11.5363L2.98129 11.4818C3.19225 11.36 3.41952 11.2991 3.66311 11.2991C3.90671 11.2991 4.13398 11.36 4.34494 11.4818L4.63813 11.6522C4.84887 11.7739 5.01513 11.9401 5.13691 12.1508C5.25869 12.3614 5.3197 12.5885 5.31995 12.8318V12.9545C5.31995 13.3311 5.45309 13.6525 5.71936 13.9188C5.98562 14.185 6.30704 14.3182 6.6836 14.3182H6.98361C7.36017 14.3182 7.68158 14.185 7.94785 13.9188C8.21412 13.6525 8.34726 13.3311 8.34726 12.9545V12.8318C8.34751 12.5885 8.40852 12.3614 8.5303 12.1508C8.65208 11.9401 8.81834 11.7739 9.02908 11.6522L9.32227 11.4818C9.53323 11.36 9.7605 11.2991 10.0041 11.2991C10.2477 11.2991 10.475 11.36 10.6859 11.4818L10.7882 11.5363C11.114 11.7242 11.4585 11.7696 11.8218 11.6725C12.1852 11.5753 12.4611 11.364 12.6496 11.0386L12.7996 10.7727C12.9875 10.4469 13.0329 10.1024 12.9357 9.73903C12.8386 9.37571 12.6273 9.0998 12.3018 8.9113L12.1996 8.85675C11.9878 8.73447 11.8209 8.56731 11.6991 8.35527C11.5772 8.14324 11.5168 7.91494 11.5177 7.67037V7.32946C11.5168 7.0849 11.5772 6.8566 11.6991 6.64456C11.8209 6.43252 11.9878 6.26537 12.1996 6.14309L12.3018 6.08172C12.6273 5.89322 12.8386 5.61731 12.9357 5.25398C13.0329 4.89066 12.9875 4.54611 12.7996 4.22034L12.6496 3.96124C12.4611 3.6358 12.1852 3.42451 11.8218 3.32735C11.4585 3.2302 11.114 3.27559 10.7882 3.46351L10.6859 3.51806C10.475 3.63985 10.2477 3.70075 10.0041 3.70075C9.7605 3.70075 9.53323 3.63985 9.32227 3.51806L9.02908 3.3476C8.81834 3.22593 8.65208 3.05975 8.5303 2.84907C8.40852 2.63839 8.34751 2.41138 8.34726 2.16804V2.04531C8.34726 1.66875 8.21412 1.34733 7.94785 1.08106C7.68158 0.814794 7.36017 0.681659 6.98361 0.681659Z" stroke="#18181B" stroke-width="1.33333" stroke-linecap="round" stroke-linejoin="round"/>
</svg>
