<svg width="29" height="29" viewBox="0 0 29 29" fill="none" xmlns="http://www.w3.org/2000/svg">
<path d="M17.532 7.32706C17.269 7.59542 17.1374 7.9175 17.1374 8.29328C17.1374 8.66907 17.269 8.99115 17.532 9.25951L19.7405 11.468C20.0089 11.7311 20.331 11.8626 20.7068 11.8626C21.0826 11.8626 21.4046 11.7311 21.673 11.468L26.8768 6.2642C27.5874 7.83451 27.7882 9.4675 27.4793 11.1632C27.1703 12.8589 26.4065 14.3161 25.1877 15.5349C23.9689 16.7536 22.5117 17.5175 20.816 17.8265C19.1203 18.1354 17.4873 17.9346 15.917 17.224L6.37897 26.7621C5.80722 27.3338 5.11706 27.6197 4.30848 27.6197C3.49991 27.6197 2.80974 27.3338 2.23799 26.7621C1.66624 26.1903 1.38037 25.5001 1.38037 24.6916C1.38037 23.883 1.66624 23.1928 2.23799 22.6211L11.776 13.083C11.0655 11.5127 10.8646 9.87972 11.1736 8.18404C11.4826 6.48835 12.2464 5.03113 13.4652 3.81236C14.684 2.59359 16.1412 1.82973 17.8369 1.52077C19.5325 1.21181 21.1655 1.41263 22.7358 2.12323L17.5458 7.31325L17.532 7.32706Z" stroke="#18181B" stroke-width="2.66667" stroke-linecap="round" stroke-linejoin="round"/>
</svg>
