<svg width="27" height="27" viewBox="0 0 27 27" fill="none" xmlns="http://www.w3.org/2000/svg">
<path d="M1.35004 16.1958H5.40002C6.14561 16.1958 6.782 16.4594 7.30921 16.9866C7.83641 17.5138 8.10002 18.1502 8.10002 18.8958V22.9458C8.10002 23.6914 7.83641 24.3278 7.30921 24.855C6.782 25.3822 6.14561 25.6458 5.40002 25.6458H4.05003C3.30445 25.6458 2.66805 25.3822 2.14085 24.855C1.61364 24.3278 1.35004 23.6914 1.35004 22.9458V13.4958C1.3512 10.1415 2.5379 7.27864 4.91016 4.9072C7.28242 2.53576 10.1457 1.35004 13.5 1.35004C16.8543 1.35004 19.7176 2.53576 22.0898 4.9072C24.4621 7.27863 25.6488 10.1415 25.65 13.4958V22.9458C25.65 23.6914 25.3864 24.3278 24.8592 24.855C24.3319 25.3822 23.6956 25.6458 22.95 25.6458H21.6C20.8544 25.6458 20.218 25.3822 19.6908 24.855C19.1636 24.3278 18.9 23.6914 18.9 22.9458V18.8958C18.9 18.1502 19.1636 17.5138 19.6908 16.9866C20.218 16.4594 20.8544 16.1958 21.6 16.1958H25.65" stroke="#18181B" stroke-width="2.66667" stroke-linecap="round" stroke-linejoin="round"/>
</svg>
