<svg width="24" height="24" viewBox="0 0 24 24" fill="none" xmlns="http://www.w3.org/2000/svg">
  <path d="M17.05 20.28C16.07 21.23 15.02 21.11 14 20.63C12.91 20.13 11.91 20.11 10.76 20.63C9.3 21.31 8.53 21.15 7.67 20.28C2.79 15.25 3.51 7.59 9.05 7.31C10.4 7.38 11.34 8.05 12.13 8.11C13.3 7.87 14.41 7.18 15.65 7.27C17.14 7.39 18.27 7.99 19.04 9.07C15.28 11.16 16.1 16.11 19.5 17.33C18.89 18.44 18.14 19.54 17.04 20.29L17.05 20.28ZM12.03 7.25C11.88 5.02 13.69 3.18 15.77 3C16.06 5.58 13.43 7.5 12.03 7.25Z" fill="black"/>
</svg> 