<svg width="24" height="24" viewBox="0 0 24 24" fill="none" xmlns="http://www.w3.org/2000/svg">
  <path d="M22 12.0607C22 6.504 17.5233 2 12 2C6.47667 2 2 6.504 2 12.0607C2 17.0833 5.656 21.2453 10.4373 22V15.1313H7.89867V12.0607H10.4373V9.844C10.4373 7.1693 11.93 5.7873 14.4147 5.7873C15.6093 5.7873 16.86 6.0347 16.86 6.0347V8.5013H15.4773C14.114 8.5013 13.5627 9.3333 13.5627 10.1887V12.0607H16.7347L16.1707 15.1313H13.5627V22C18.344 21.2453 22 17.0833 22 12.0607Z" fill="#1877F2"/>
  <path d="M16.1707 15.1313L16.7347 12.0607H13.5627V10.1887C13.5627 9.3333 14.114 8.5013 15.4773 8.5013H16.86V6.0347C16.86 6.0347 15.6093 5.7873 14.4147 5.7873C11.93 5.7873 10.4373 7.1693 10.4373 9.844V12.0607H7.89867V15.1313H10.4373V22C11.1993 22.1333 12 22.1333 12.7627 22V15.1313H16.1707Z" fill="white"/>
</svg> 