<svg width="18" height="18" viewBox="0 0 18 18" fill="none" xmlns="http://www.w3.org/2000/svg">
  <path d="M14.25 8.25H3.75C3.33579 8.25 3 8.58579 3 9V15C3 15.4142 3.33579 15.75 3.75 15.75H14.25C14.6642 15.75 15 15.4142 15 15V9C15 8.58579 14.6642 8.25 14.25 8.25Z" stroke="#52525B" stroke-width="1.5" stroke-linecap="round" stroke-linejoin="round"/>
  <path d="M5.25 8.25V5.25C5.25 4.25544 5.64509 3.30161 6.34835 2.59835C7.05161 1.89509 8.00544 1.5 9 1.5C9.99456 1.5 10.9484 1.89509 11.6517 2.59835C12.3549 3.30161 12.75 4.25544 12.75 5.25V8.25" stroke="#52525B" stroke-width="1.5" stroke-linecap="round" stroke-linejoin="round"/>
</svg> 