<?xml version="1.0" encoding="UTF-8"?>
<svg width="80" height="80" viewBox="0 0 80 80" fill="none" xmlns="http://www.w3.org/2000/svg">
  <circle cx="40" cy="40" r="35" fill="#F4F4F5"/>
  <path d="M30 25C30 25 25 30 25 35C25 40 30 45 30 50C30 55 25 60 25 60" stroke="#18181B" stroke-width="3" stroke-linecap="round" stroke-linejoin="round"/>
  <path d="M40 20C40 20 35 30 35 35C35 40 40 45 40 50C40 55 35 65 35 65" stroke="#18181B" stroke-width="3" stroke-linecap="round" stroke-linejoin="round"/>
  <path d="M50 25C50 25 45 30 45 35C45 40 50 45 50 50C50 55 45 60 45 60" stroke="#18181B" stroke-width="3" stroke-linecap="round" stroke-linejoin="round"/>
</svg> 