<svg width="40" height="40" viewBox="0 0 40 40" fill="none" xmlns="http://www.w3.org/2000/svg">
<path d="M2 23.9938H8C9.10457 23.9938 10.0474 24.3843 10.8284 25.1654C11.6095 25.9464 12 26.8892 12 27.9938V33.9938C12 35.0984 11.6095 36.0412 10.8284 36.8222C10.0474 37.6033 9.10457 37.9938 8 37.9938H6C4.89543 37.9938 3.95262 37.6033 3.17157 36.8222C2.39052 36.0412 2 35.0984 2 33.9938V19.9938C2.00172 15.0244 3.75981 10.7831 7.27427 7.26988C10.7887 3.75663 15.0307 2 20 2C24.9693 2 29.2113 3.75663 32.7257 7.26988C36.2402 10.7831 37.9983 15.0244 38 19.9938V33.9938C38 35.0984 37.6095 36.0412 36.8284 36.8222C36.0474 37.6033 35.1046 37.9938 34 37.9938H32C30.8954 37.9938 29.9526 37.6033 29.1716 36.8222C28.3905 36.0412 28 35.0984 28 33.9938V27.9938C28 26.8892 28.3905 25.9464 29.1716 25.1654C29.9526 24.3843 30.8954 23.9938 32 23.9938H38" stroke="#18181B" stroke-width="4" stroke-linecap="round" stroke-linejoin="round"/>
</svg>
