<svg width="48" height="20" viewBox="0 0 48 20" fill="none" xmlns="http://www.w3.org/2000/svg">
<g clip-path="url(#clip0_0_11519)">
<rect width="47.2656" height="20" fill="black" fill-opacity="0.01"/>
<path d="M2.632 15V7.636H0.56V6.6H1.4C1.764 6.6 2.05333 6.55333 2.268 6.46C2.492 6.36667 2.65067 6.208 2.744 5.984C2.83733 5.76 2.884 5.452 2.884 5.06H3.836V15H2.632ZM10.5736 15V12.844H5.51961V11.752L10.4896 5.06H11.7776V11.668H13.0096V12.844H11.7776V15H10.5736ZM6.97561 11.668H10.5736V6.908L6.97561 11.668ZM20.9649 15.168C20.3209 15.168 19.7609 15.0093 19.2849 14.692C18.8182 14.3747 18.4589 13.9267 18.2069 13.348C17.9549 12.7693 17.8289 12.0833 17.8289 11.29C17.8289 10.4967 17.9549 9.81067 18.2069 9.232C18.4589 8.65333 18.8182 8.20533 19.2849 7.888C19.7609 7.57067 20.3209 7.412 20.9649 7.412C21.4596 7.412 21.9122 7.51933 22.3229 7.734C22.7336 7.93933 23.0416 8.23333 23.2469 8.616V5.06H24.4229V15H23.3589L23.3169 13.88C23.1116 14.2813 22.7989 14.5987 22.3789 14.832C21.9589 15.056 21.4876 15.168 20.9649 15.168ZM21.2029 14.048C21.6416 14.048 22.0102 13.936 22.3089 13.712C22.6169 13.488 22.8502 13.1707 23.0089 12.76C23.1676 12.34 23.2469 11.85 23.2469 11.29C23.2469 10.7113 23.1676 10.2167 23.0089 9.806C22.8502 9.39533 22.6169 9.08267 22.3089 8.868C22.0102 8.644 21.6416 8.532 21.2029 8.532C20.5496 8.532 20.0269 8.77933 19.6349 9.274C19.2522 9.75933 19.0609 10.4313 19.0609 11.29C19.0609 12.1393 19.2522 12.8113 19.6349 13.306C20.0269 13.8007 20.5496 14.048 21.2029 14.048ZM28.5243 15.168C27.759 15.168 27.1477 14.9907 26.6903 14.636C26.2423 14.2813 26.0183 13.7867 26.0183 13.152C26.0183 12.5173 26.205 12.018 26.5783 11.654C26.9517 11.29 27.5443 11.0333 28.3563 10.884L30.9883 10.394C30.9883 9.76867 30.839 9.302 30.5403 8.994C30.251 8.686 29.8123 8.532 29.2243 8.532C28.711 8.532 28.305 8.64867 28.0063 8.882C27.7077 9.106 27.5023 9.43267 27.3903 9.862L26.1443 9.764C26.2843 9.064 26.6203 8.49933 27.1523 8.07C27.6937 7.63133 28.3843 7.412 29.2243 7.412C30.1763 7.412 30.9043 7.68267 31.4083 8.224C31.9123 8.756 32.1643 9.49333 32.1643 10.436V13.502C32.1643 13.67 32.1923 13.7913 32.2483 13.866C32.3137 13.9313 32.4163 13.964 32.5563 13.964H32.8503V15C32.813 15.0093 32.7523 15.014 32.6683 15.014C32.5843 15.0233 32.4957 15.028 32.4023 15.028C32.0663 15.028 31.791 14.9767 31.5763 14.874C31.371 14.762 31.2217 14.594 31.1283 14.37C31.035 14.1367 30.9883 13.8333 30.9883 13.46L31.1283 13.488C31.063 13.8053 30.9043 14.0947 30.6523 14.356C30.4003 14.608 30.0877 14.8087 29.7143 14.958C29.341 15.098 28.9443 15.168 28.5243 15.168ZM28.6363 14.132C29.131 14.132 29.551 14.0387 29.8963 13.852C30.251 13.656 30.5217 13.3947 30.7083 13.068C30.895 12.732 30.9883 12.3587 30.9883 11.948V11.416L28.5803 11.864C28.0763 11.9573 27.7263 12.102 27.5303 12.298C27.3437 12.4847 27.2503 12.732 27.2503 13.04C27.2503 13.3853 27.3717 13.656 27.6143 13.852C27.8663 14.0387 28.207 14.132 28.6363 14.132ZM34.2135 17.1V16.064H35.0675C35.3288 16.064 35.5202 16.022 35.6415 15.938C35.7722 15.8633 35.8702 15.7373 35.9355 15.56L36.2015 14.86H35.7955L33.0795 7.58H34.3675L36.5795 13.768L38.6935 7.58H39.9815L36.9715 15.938C36.8315 16.3393 36.6215 16.6333 36.3415 16.82C36.0615 17.0067 35.6742 17.1 35.1795 17.1H34.2135ZM43.7439 15.168C43.0812 15.168 42.5165 15.0607 42.0499 14.846C41.5925 14.6313 41.2332 14.3373 40.9719 13.964C40.7199 13.5813 40.5752 13.1473 40.5379 12.662L41.7699 12.578C41.8445 13.026 42.0359 13.3853 42.3439 13.656C42.6519 13.9173 43.1185 14.048 43.7439 14.048C44.2479 14.048 44.6492 13.9687 44.9479 13.81C45.2559 13.642 45.4099 13.376 45.4099 13.012C45.4099 12.816 45.3632 12.6527 45.2699 12.522C45.1765 12.3913 44.9945 12.2793 44.7239 12.186C44.4532 12.0833 44.0519 11.9853 43.5199 11.892C42.8105 11.7613 42.2505 11.6027 41.8399 11.416C41.4385 11.22 41.1492 10.982 40.9719 10.702C40.8039 10.4127 40.7199 10.072 40.7199 9.68C40.7199 9.01733 40.9625 8.476 41.4479 8.056C41.9332 7.62667 42.6239 7.412 43.5199 7.412C44.1265 7.412 44.6352 7.524 45.0459 7.748C45.4659 7.96267 45.7925 8.252 46.0259 8.616C46.2685 8.97067 46.4272 9.36267 46.5019 9.792L45.2699 9.876C45.2139 9.61467 45.1112 9.386 44.9619 9.19C44.8125 8.98467 44.6165 8.826 44.3739 8.714C44.1312 8.59267 43.8419 8.532 43.5059 8.532C42.9739 8.532 42.5819 8.63467 42.3299 8.84C42.0779 9.04533 41.9519 9.30667 41.9519 9.624C41.9519 9.86667 42.0079 10.0673 42.1199 10.226C42.2412 10.3753 42.4325 10.5013 42.6939 10.604C42.9552 10.6973 43.3052 10.7813 43.7439 10.856C44.4999 10.9867 45.0879 11.1453 45.5079 11.332C45.9279 11.5187 46.2219 11.7473 46.3899 12.018C46.5579 12.2887 46.6419 12.62 46.6419 13.012C46.6419 13.4693 46.5112 13.8613 46.2499 14.188C45.9979 14.5053 45.6525 14.748 45.2139 14.916C44.7845 15.084 44.2945 15.168 43.7439 15.168Z" fill="#71717A"/>
</g>
<defs>
<clipPath id="clip0_0_11519">
<rect width="47.2656" height="20" fill="white"/>
</clipPath>
</defs>
</svg>
