<svg width="372" height="32" viewBox="0 0 372 32" fill="none" xmlns="http://www.w3.org/2000/svg">
<g clip-path="url(#clip0_0_11704)">
<rect width="371.344" height="32" fill="black" fill-opacity="0.01"/>
<g clip-path="url(#clip1_0_11704)">
<rect width="60.4531" height="32" fill="black" fill-opacity="0.01"/>
<path d="M7.08 26.16V4.8H8.952V26.16H7.08ZM8.208 24.312C6.832 24.312 5.64 24.072 4.632 23.592C3.624 23.096 2.832 22.416 2.256 21.552C1.696 20.672 1.368 19.648 1.272 18.48L4.368 18.312C4.464 19.032 4.672 19.64 4.992 20.136C5.312 20.632 5.744 21.016 6.288 21.288C6.832 21.544 7.488 21.672 8.256 21.672C8.912 21.672 9.472 21.592 9.936 21.432C10.4 21.256 10.752 21.008 10.992 20.688C11.248 20.368 11.376 19.976 11.376 19.512C11.376 19.064 11.272 18.68 11.064 18.36C10.856 18.024 10.456 17.72 9.864 17.448C9.288 17.176 8.432 16.912 7.296 16.656C5.92 16.32 4.808 15.952 3.96 15.552C3.128 15.152 2.528 14.656 2.16 14.064C1.792 13.456 1.608 12.696 1.608 11.784C1.608 10.808 1.848 9.952 2.328 9.216C2.808 8.464 3.496 7.888 4.392 7.488C5.288 7.072 6.368 6.864 7.632 6.864C8.96 6.864 10.088 7.104 11.016 7.584C11.944 8.048 12.672 8.696 13.2 9.528C13.744 10.36 14.072 11.312 14.184 12.384L11.088 12.552C11.024 11.944 10.848 11.408 10.56 10.944C10.272 10.48 9.88 10.12 9.384 9.864C8.888 9.608 8.288 9.48 7.584 9.48C6.688 9.48 5.984 9.688 5.472 10.104C4.976 10.504 4.728 11.032 4.728 11.688C4.728 12.136 4.832 12.512 5.04 12.816C5.264 13.104 5.648 13.36 6.192 13.584C6.736 13.792 7.504 14.008 8.496 14.232C9.984 14.568 11.16 14.976 12.024 15.456C12.904 15.92 13.528 16.48 13.896 17.136C14.28 17.776 14.472 18.512 14.472 19.344C14.472 20.352 14.208 21.232 13.68 21.984C13.168 22.72 12.44 23.296 11.496 23.712C10.568 24.112 9.472 24.312 8.208 24.312ZM19.806 24C19.806 22.24 20.03 20.52 20.478 18.84C20.942 17.16 21.59 15.552 22.422 14.016C23.27 12.464 24.27 11.016 25.422 9.672H16.23V6.96H28.662V9.504C27.382 10.944 26.318 12.4 25.47 13.872C24.622 15.328 23.99 16.888 23.574 18.552C23.174 20.2 22.974 22.016 22.974 24H19.806ZM36.2286 24.384C34.8686 24.384 33.6686 24.192 32.6286 23.808C31.6046 23.424 30.8046 22.864 30.2286 22.128C29.6526 21.376 29.3646 20.448 29.3646 19.344C29.3646 18.096 29.7486 17.064 30.5166 16.248C31.3006 15.416 32.3486 14.872 33.6606 14.616L33.7086 15.12C32.6366 14.88 31.7806 14.44 31.1406 13.8C30.5166 13.144 30.2046 12.296 30.2046 11.256C30.2046 10.344 30.4366 9.536 30.9006 8.832C31.3806 8.128 32.0686 7.576 32.9646 7.176C33.8766 6.776 34.9646 6.576 36.2286 6.576C37.5086 6.576 38.5966 6.776 39.4926 7.176C40.4046 7.576 41.0926 8.128 41.5566 8.832C42.0366 9.536 42.2766 10.344 42.2766 11.256C42.2766 12.296 41.9566 13.136 41.3166 13.776C40.6926 14.416 39.8446 14.864 38.7726 15.12L38.8206 14.616C40.1326 14.872 41.1726 15.416 41.9406 16.248C42.7086 17.064 43.0926 18.096 43.0926 19.344C43.0926 20.448 42.8046 21.376 42.2286 22.128C41.6686 22.864 40.8766 23.424 39.8526 23.808C38.8286 24.192 37.6206 24.384 36.2286 24.384ZM36.2286 21.648C37.3326 21.648 38.2126 21.424 38.8686 20.976C39.5406 20.512 39.8766 19.832 39.8766 18.936C39.8766 18.088 39.5646 17.408 38.9406 16.896C38.3326 16.368 37.4286 16.104 36.2286 16.104C35.0446 16.104 34.1406 16.368 33.5166 16.896C32.9086 17.408 32.6046 18.088 32.6046 18.936C32.6046 19.832 32.9326 20.512 33.5886 20.976C34.2446 21.424 35.1246 21.648 36.2286 21.648ZM36.2286 13.776C37.1246 13.776 37.8206 13.592 38.3166 13.224C38.8286 12.84 39.0846 12.272 39.0846 11.52C39.0846 10.832 38.8446 10.288 38.3646 9.888C37.8846 9.488 37.1726 9.288 36.2286 9.288C35.3166 9.288 34.6126 9.488 34.1166 9.888C33.6366 10.288 33.3966 10.832 33.3966 11.52C33.3966 12.272 33.6446 12.84 34.1406 13.224C34.6366 13.592 35.3326 13.776 36.2286 13.776ZM52.2242 24.384C50.7842 24.384 49.5282 24.024 48.4562 23.304C47.4002 22.584 46.5842 21.56 46.0082 20.232C45.4322 18.904 45.1442 17.328 45.1442 15.504C45.1442 13.68 45.4322 12.104 46.0082 10.776C46.5842 9.432 47.4002 8.4 48.4562 7.68C49.5282 6.944 50.7842 6.576 52.2242 6.576C53.6962 6.576 54.9602 6.944 56.0162 7.68C57.0722 8.4 57.8882 9.424 58.4642 10.752C59.0402 12.08 59.3282 13.664 59.3282 15.504C59.3282 17.328 59.0402 18.904 58.4642 20.232C57.8882 21.56 57.0722 22.584 56.0162 23.304C54.9602 24.024 53.6962 24.384 52.2242 24.384ZM52.2242 21.672C53.4722 21.672 54.4322 21.152 55.1042 20.112C55.7762 19.056 56.1122 17.52 56.1122 15.504C56.1122 14.16 55.9602 13.024 55.6562 12.096C55.3522 11.168 54.9122 10.472 54.3362 10.008C53.7762 9.528 53.0722 9.288 52.2242 9.288C51.4082 9.288 50.7122 9.528 50.1362 10.008C49.5602 10.472 49.1202 11.168 48.8162 12.096C48.5122 13.024 48.3602 14.16 48.3602 15.504C48.3602 17.52 48.6962 19.056 49.3682 20.112C50.0402 21.152 50.9922 21.672 52.2242 21.672Z" fill="#09090B"/>
</g>
<g clip-path="url(#clip2_0_11704)">
<rect x="323.641" y="6" width="47.7031" height="20" fill="black" fill-opacity="0.01"/>
<path d="M326.273 21V13.636H324.201V12.6H325.041C325.405 12.6 325.694 12.5533 325.909 12.46C326.133 12.3667 326.291 12.208 326.385 11.984C326.478 11.76 326.525 11.452 326.525 11.06H327.477V21H326.273ZM333.382 21.224C332.682 21.224 332.075 21.1073 331.562 20.874C331.058 20.6407 330.656 20.314 330.358 19.894C330.068 19.474 329.9 18.9887 329.854 18.438L331.114 18.354C331.188 18.914 331.426 19.3387 331.828 19.628C332.238 19.908 332.756 20.048 333.382 20.048C334.082 20.048 334.637 19.852 335.048 19.46C335.458 19.0587 335.664 18.508 335.664 17.808C335.664 17.3413 335.57 16.94 335.384 16.604C335.206 16.2587 334.945 15.9927 334.6 15.806C334.254 15.6193 333.839 15.526 333.354 15.526C332.896 15.526 332.481 15.624 332.108 15.82C331.734 16.016 331.468 16.2913 331.31 16.646H330.022L330.68 11.06H336.252V12.236H331.786L331.338 15.904L331.114 15.68C331.263 15.3907 331.459 15.1527 331.702 14.966C331.954 14.77 332.238 14.6253 332.556 14.532C332.882 14.4293 333.223 14.378 333.578 14.378C334.24 14.378 334.824 14.5273 335.328 14.826C335.832 15.1153 336.224 15.5213 336.504 16.044C336.784 16.5573 336.924 17.1453 336.924 17.808C336.924 18.4707 336.774 19.0633 336.476 19.586C336.177 20.0993 335.762 20.5007 335.23 20.79C334.698 21.0793 334.082 21.224 333.382 21.224ZM345.029 21.168C344.385 21.168 343.825 21.0093 343.349 20.692C342.883 20.3747 342.523 19.9267 342.271 19.348C342.019 18.7693 341.893 18.0833 341.893 17.29C341.893 16.4967 342.019 15.8107 342.271 15.232C342.523 14.6533 342.883 14.2053 343.349 13.888C343.825 13.5707 344.385 13.412 345.029 13.412C345.524 13.412 345.977 13.5193 346.387 13.734C346.798 13.9393 347.106 14.2333 347.311 14.616V11.06H348.487V21H347.423L347.381 19.88C347.176 20.2813 346.863 20.5987 346.443 20.832C346.023 21.056 345.552 21.168 345.029 21.168ZM345.267 20.048C345.706 20.048 346.075 19.936 346.373 19.712C346.681 19.488 346.915 19.1707 347.073 18.76C347.232 18.34 347.311 17.85 347.311 17.29C347.311 16.7113 347.232 16.2167 347.073 15.806C346.915 15.3953 346.681 15.0827 346.373 14.868C346.075 14.644 345.706 14.532 345.267 14.532C344.614 14.532 344.091 14.7793 343.699 15.274C343.317 15.7593 343.125 16.4313 343.125 17.29C343.125 18.1393 343.317 18.8113 343.699 19.306C344.091 19.8007 344.614 20.048 345.267 20.048ZM352.589 21.168C351.823 21.168 351.212 20.9907 350.755 20.636C350.307 20.2813 350.083 19.7867 350.083 19.152C350.083 18.5173 350.269 18.018 350.643 17.654C351.016 17.29 351.609 17.0333 352.421 16.884L355.053 16.394C355.053 15.7687 354.903 15.302 354.605 14.994C354.315 14.686 353.877 14.532 353.289 14.532C352.775 14.532 352.369 14.6487 352.071 14.882C351.772 15.106 351.567 15.4327 351.455 15.862L350.209 15.764C350.349 15.064 350.685 14.4993 351.217 14.07C351.758 13.6313 352.449 13.412 353.289 13.412C354.241 13.412 354.969 13.6827 355.473 14.224C355.977 14.756 356.229 15.4933 356.229 16.436V19.502C356.229 19.67 356.257 19.7913 356.313 19.866C356.378 19.9313 356.481 19.964 356.621 19.964H356.915V21C356.877 21.0093 356.817 21.014 356.733 21.014C356.649 21.0233 356.56 21.028 356.467 21.028C356.131 21.028 355.855 20.9767 355.641 20.874C355.435 20.762 355.286 20.594 355.193 20.37C355.099 20.1367 355.053 19.8333 355.053 19.46L355.193 19.488C355.127 19.8053 354.969 20.0947 354.717 20.356C354.465 20.608 354.152 20.8087 353.779 20.958C353.405 21.098 353.009 21.168 352.589 21.168ZM352.701 20.132C353.195 20.132 353.615 20.0387 353.961 19.852C354.315 19.656 354.586 19.3947 354.773 19.068C354.959 18.732 355.053 18.3587 355.053 17.948V17.416L352.645 17.864C352.141 17.9573 351.791 18.102 351.595 18.298C351.408 18.4847 351.315 18.732 351.315 19.04C351.315 19.3853 351.436 19.656 351.679 19.852C351.931 20.0387 352.271 20.132 352.701 20.132ZM358.278 23.1V22.064H359.132C359.393 22.064 359.585 22.022 359.706 21.938C359.837 21.8633 359.935 21.7373 360 21.56L360.266 20.86H359.86L357.144 13.58H358.432L360.644 19.768L362.758 13.58H364.046L361.036 21.938C360.896 22.3393 360.686 22.6333 360.406 22.82C360.126 23.0067 359.739 23.1 359.244 23.1H358.278ZM367.808 21.168C367.146 21.168 366.581 21.0607 366.114 20.846C365.657 20.6313 365.298 20.3373 365.036 19.964C364.784 19.5813 364.64 19.1473 364.602 18.662L365.834 18.578C365.909 19.026 366.1 19.3853 366.408 19.656C366.716 19.9173 367.183 20.048 367.808 20.048C368.312 20.048 368.714 19.9687 369.012 19.81C369.32 19.642 369.474 19.376 369.474 19.012C369.474 18.816 369.428 18.6527 369.334 18.522C369.241 18.3913 369.059 18.2793 368.788 18.186C368.518 18.0833 368.116 17.9853 367.584 17.892C366.875 17.7613 366.315 17.6027 365.904 17.416C365.503 17.22 365.214 16.982 365.036 16.702C364.868 16.4127 364.784 16.072 364.784 15.68C364.784 15.0173 365.027 14.476 365.512 14.056C365.998 13.6267 366.688 13.412 367.584 13.412C368.191 13.412 368.7 13.524 369.11 13.748C369.53 13.9627 369.857 14.252 370.09 14.616C370.333 14.9707 370.492 15.3627 370.566 15.792L369.334 15.876C369.278 15.6147 369.176 15.386 369.026 15.19C368.877 14.9847 368.681 14.826 368.438 14.714C368.196 14.5927 367.906 14.532 367.57 14.532C367.038 14.532 366.646 14.6347 366.394 14.84C366.142 15.0453 366.016 15.3067 366.016 15.624C366.016 15.8667 366.072 16.0673 366.184 16.226C366.306 16.3753 366.497 16.5013 366.758 16.604C367.02 16.6973 367.37 16.7813 367.808 16.856C368.564 16.9867 369.152 17.1453 369.572 17.332C369.992 17.5187 370.286 17.7473 370.454 18.018C370.622 18.2887 370.706 18.62 370.706 19.012C370.706 19.4693 370.576 19.8613 370.314 20.188C370.062 20.5053 369.717 20.748 369.278 20.916C368.849 21.084 368.359 21.168 367.808 21.168Z" fill="#71717A"/>
</g>
</g>
<defs>
<clipPath id="clip0_0_11704">
<rect width="371.344" height="32" fill="white"/>
</clipPath>
<clipPath id="clip1_0_11704">
<rect width="60.4531" height="32" fill="white"/>
</clipPath>
<clipPath id="clip2_0_11704">
<rect width="47.7031" height="20" fill="white" transform="translate(323.641 6)"/>
</clipPath>
</defs>
</svg>
