<svg width="25" height="20" viewBox="0 0 25 20" fill="none" xmlns="http://www.w3.org/2000/svg">
<g clip-path="url(#clip0_0_11508)">
<g clip-path="url(#clip1_0_11508)">
<rect x="4" width="20.7344" height="20" fill="black" fill-opacity="0.01"/>
<path d="M9.404 15V12.928H4.392V11.64L9.222 5.06H10.916V11.556H12.134V12.928H10.916V15H9.404ZM6.114 11.556H9.404V7.16L6.114 11.556ZM13.3927 15V13.236H15.1987V15H13.3927ZM19.9432 15.224C19.0845 15.224 18.3892 15.0187 17.8572 14.608C17.3252 14.1973 16.9565 13.6513 16.7512 12.97L18.2772 12.872C18.3892 13.18 18.5805 13.4227 18.8512 13.6C19.1312 13.768 19.4952 13.852 19.9432 13.852C20.7272 13.852 21.3198 13.544 21.7212 12.928C22.1318 12.312 22.3418 11.3133 22.3512 9.932L22.6312 10.002C22.3978 10.59 22.0432 11.038 21.5672 11.346C21.1005 11.654 20.5498 11.808 19.9152 11.808C19.2618 11.808 18.6878 11.668 18.1932 11.388C17.6985 11.0987 17.3112 10.6973 17.0312 10.184C16.7512 9.67067 16.6112 9.07333 16.6112 8.392C16.6112 7.65467 16.7605 7.02467 17.0592 6.502C17.3578 5.97 17.7732 5.55933 18.3052 5.27C18.8372 4.98067 19.4532 4.836 20.1532 4.836C21.0118 4.836 21.7118 5.02733 22.2532 5.41C22.8038 5.79267 23.2098 6.334 23.4712 7.034C23.7418 7.72467 23.8772 8.55533 23.8772 9.526C23.8772 10.366 23.8072 11.136 23.6672 11.836C23.5272 12.536 23.2985 13.138 22.9812 13.642C22.6732 14.146 22.2672 14.538 21.7632 14.818C21.2685 15.0887 20.6618 15.224 19.9432 15.224ZM20.1252 10.506C20.5452 10.506 20.9138 10.422 21.2312 10.254C21.5485 10.086 21.7958 9.848 21.9732 9.54C22.1505 9.22267 22.2392 8.84 22.2392 8.392C22.2392 7.96267 22.1552 7.58467 21.9872 7.258C21.8285 6.922 21.5952 6.66067 21.2872 6.474C20.9792 6.278 20.6105 6.18 20.1812 6.18C19.7612 6.18 19.3972 6.27333 19.0892 6.46C18.7905 6.64667 18.5572 6.908 18.3892 7.244C18.2305 7.57067 18.1512 7.94867 18.1512 8.378C18.1512 8.81667 18.2352 9.19467 18.4032 9.512C18.5712 9.82933 18.7998 10.0767 19.0892 10.254C19.3878 10.422 19.7332 10.506 20.1252 10.506Z" fill="#09090B"/>
</g>
</g>
<defs>
<clipPath id="clip0_0_11508">
<rect width="24.7344" height="20" fill="white"/>
</clipPath>
<clipPath id="clip1_0_11508">
<rect width="20.7344" height="20" fill="white" transform="translate(4)"/>
</clipPath>
</defs>
</svg>
