<svg xmlns="http://www.w3.org/2000/svg" viewBox="0 0 48 30" fill="none">
  <path d="M17.9977 10.5414H13.3164L11.3008 19.4586H15.9821L17.9977 10.5414Z" fill="#2563EB"/>
  <path d="M36.2297 10.6963C35.2255 10.2865 33.7178 9.84375 31.895 9.84375C28.0098 9.84375 25.2954 11.8611 25.2735 14.7739C25.2297 16.9463 27.2016 18.1611 28.6876 18.9049C30.1736 19.6488 30.6813 20.1598 30.6813 20.8598C30.6594 21.9309 29.3844 22.442 28.1969 22.442C26.5259 22.442 25.6454 22.1865 24.2688 21.5803L23.6921 21.324L23.0715 25.0438C24.2688 25.6072 26.4823 26.1182 28.7751 26.1182C32.9256 26.1182 35.5964 24.1438 35.6182 21.0256C35.6182 19.2629 34.5114 17.9043 32.1911 16.8332C30.8061 16.1332 29.9912 15.6662 29.9912 14.9234C30.0131 14.2234 30.8062 13.5234 32.3361 13.5234C33.6235 13.4797 34.5477 13.8021 35.2779 14.1246L35.6838 14.3363L36.2297 10.6963Z" fill="#2563EB"/>
  <path d="M41.7365 19.7811C42.0852 18.8639 43.3289 15.4099 43.3289 15.4099C43.3071 15.4537 43.6558 14.4927 43.8707 13.9379L44.1979 15.2537C44.1979 15.2537 44.9499 18.9077 45.1211 19.7811C44.3691 19.7811 42.6544 19.7811 41.7365 19.7811ZM46.3623 10.5414H42.8433C41.8391 10.5414 41.0869 10.799 40.6288 11.9576L34.7598 25.1752H39.7631C39.7631 25.1752 40.4277 23.3237 40.5771 22.9137C41.0432 22.9137 45.5884 22.9137 46.1652 22.9137C46.2707 23.4687 46.6414 25.1752 46.6414 25.1752H51.0005L46.3623 10.5414Z" fill="#2563EB"/>
  <path d="M11.8522 10.5414L7.13975 20.1598L6.69167 17.9873C5.90365 15.5811 3.66968 12.9611 1.17969 11.5586L5.47197 25.1752H10.5208L17.5497 10.5414H11.8522Z" fill="#2563EB"/>
  <path d="M3.84473 10.5414H0.0470078L0 10.7972C2.97087 11.5848 4.93644 13.5154 5.72448 15.9654L4.9146 11.9576C4.74973 11.0404 4.364 10.5852 3.84473 10.5414Z" fill="#2563EB"/>
</svg> 