<svg width="49" height="48" viewBox="0 0 49 48" fill="none" xmlns="http://www.w3.org/2000/svg">
<g clip-path="url(#clip0_0_55)">
<mask id="mask0_0_55" style="mask-type:luminance" maskUnits="userSpaceOnUse" x="0" y="0" width="49" height="48">
<rect x="0.65625" width="48" height="48" fill="white"/>
</mask>
<g mask="url(#mask0_0_55)">
<rect x="16.6562" y="4" width="16" height="8" rx="2" stroke="#18181B" stroke-width="4"/>
<path d="M32.6562 8H36.6562C37.7608 8 38.7036 8.39052 39.4847 9.17157C40.2657 9.95262 40.6562 10.8954 40.6562 12V40C40.6562 41.1046 40.2657 42.0474 39.4847 42.8284C38.7036 43.6095 37.7608 44 36.6562 44H12.6562C11.5517 44 10.6089 43.6095 9.82782 42.8284C9.04677 42.0474 8.65625 41.1046 8.65625 40V12C8.65625 10.8954 9.04677 9.95262 9.82782 9.17157C10.6089 8.39052 11.5517 8 12.6562 8H16.6562" stroke="#18181B" stroke-width="4" stroke-linecap="round" stroke-linejoin="round"/>
<path d="M24.6562 22H32.6562" stroke="#18181B" stroke-width="4" stroke-linecap="round" stroke-linejoin="round"/>
<path d="M24.6562 32H32.6562" stroke="#18181B" stroke-width="4" stroke-linecap="round" stroke-linejoin="round"/>
<path d="M16.6562 22H16.6762" stroke="#18181B" stroke-width="4" stroke-linecap="round" stroke-linejoin="round"/>
<path d="M16.6562 32H16.6762" stroke="#18181B" stroke-width="4" stroke-linecap="round" stroke-linejoin="round"/>
</g>
</g>
<defs>
<clipPath id="clip0_0_55">
<rect width="48" height="48" fill="white" transform="translate(0.65625)"/>
</clipPath>
</defs>
</svg>
