<svg width="1200" height="600" viewBox="0 0 1200 600" fill="none" xmlns="http://www.w3.org/2000/svg">
  <rect width="1200" height="600" fill="#F5F5F5"/>
  <path d="M0 550C200 450 400 600 600 500C800 400 1000 550 1200 450V600H0V550Z" fill="#E4E4E7" fill-opacity="0.5"/>
  <path d="M0 500C200 600 400 500 600 600C800 500 1000 600 1200 500V600H0V500Z" fill="#E4E4E7" fill-opacity="0.3"/>
  
  <!-- Document Icon -->
  <rect x="350" y="200" width="200" height="250" rx="10" fill="#FFFFFF" stroke="#18181B" stroke-width="4"/>
  <rect x="380" y="240" width="140" height="10" rx="5" fill="#71717A"/>
  <rect x="380" y="270" width="140" height="10" rx="5" fill="#71717A"/>
  <rect x="380" y="300" width="100" height="10" rx="5" fill="#71717A"/>
  <rect x="380" y="330" width="70" height="10" rx="5" fill="#71717A"/>
  <rect x="380" y="360" width="120" height="10" rx="5" fill="#71717A"/>
  
  <!-- Person Silhouette -->
  <circle cx="700" cy="220" r="50" fill="#18181B"/>
  <rect x="650" y="280" width="100" height="150" rx="30" fill="#18181B"/>
  <rect x="630" y="320" width="50" height="15" rx="7.5" fill="#18181B"/>
  <rect x="720" y="320" width="50" height="15" rx="7.5" fill="#18181B"/>
  
  <!-- Computer Icon -->
  <rect x="600" y="370" width="200" height="150" rx="10" fill="#FFFFFF" stroke="#18181B" stroke-width="4"/>
  <rect x="600" y="520" width="200" height="20" rx="5" fill="#18181B"/>
  <rect x="680" y="540" width="40" height="10" rx="5" fill="#18181B"/>
  <rect x="620" y="390" width="160" height="110" rx="5" fill="#F4F4F5"/>
  
  <!-- Worker Icons -->
  <circle cx="850" cy="300" r="30" fill="#F4F4F5" stroke="#18181B" stroke-width="3"/>
  <rect x="835" y="340" width="30" height="60" rx="10" fill="#F4F4F5" stroke="#18181B" stroke-width="3"/>
  
  <circle cx="900" cy="350" r="25" fill="#F4F4F5" stroke="#18181B" stroke-width="3"/>
  <rect x="885" y="380" width="30" height="50" rx="10" fill="#F4F4F5" stroke="#18181B" stroke-width="3"/>
  
  <circle cx="950" cy="320" r="35" fill="#F4F4F5" stroke="#18181B" stroke-width="3"/>
  <rect x="930" y="370" width="40" height="70" rx="10" fill="#F4F4F5" stroke="#18181B" stroke-width="3"/>
</svg> 