<svg width="800" height="1000" viewBox="0 0 800 1000" fill="none" xmlns="http://www.w3.org/2000/svg">
  <rect width="800" height="1000" fill="#F5F5F5"/>
  
  <!-- Card Background -->
  <rect x="100" y="150" width="600" height="700" rx="16" fill="white" stroke="#E4E4E7" stroke-width="2"/>
  
  <!-- Header Section -->
  <rect x="100" y="150" width="600" height="100" rx="16" fill="white"/>
  <rect x="140" y="180" width="300" height="24" rx="4" fill="#18181B"/>
  <rect x="140" y="215" width="150" height="16" rx="4" fill="#A1A1AA"/>
  
  <!-- Budget Section -->
  <rect x="140" y="280" width="120" height="40" rx="8" fill="white" stroke="#E4E4E7" stroke-width="2"/>
  <rect x="160" y="295" width="80" height="16" rx="4" fill="#18181B"/>
  
  <!-- Description Section -->
  <rect x="140" y="350" width="520" height="16" rx="4" fill="#71717A"/>
  <rect x="140" y="380" width="480" height="16" rx="4" fill="#71717A"/>
  <rect x="140" y="410" width="400" height="16" rx="4" fill="#71717A"/>
  
  <!-- Location and Details -->
  <rect x="140" y="460" width="16" height="16" rx="8" fill="#A1A1AA"/>
  <rect x="166" y="460" width="120" height="16" rx="4" fill="#A1A1AA"/>
  
  <rect x="420" y="460" width="16" height="16" rx="8" fill="#A1A1AA"/>
  <rect x="446" y="460" width="80" height="16" rx="4" fill="#A1A1AA"/>
  
  <!-- Job Details -->
  <rect x="140" y="520" width="520" height="1" fill="#E4E4E7"/>
  
  <rect x="140" y="550" width="30" height="30" rx="15" fill="#F4F4F5"/>
  <rect x="180" y="550" width="150" height="20" rx="4" fill="#18181B"/>
  <rect x="180" y="580" width="300" height="16" rx="4" fill="#71717A"/>
  
  <rect x="140" y="620" width="520" height="1" fill="#E4E4E7"/>
  
  <rect x="140" y="650" width="30" height="30" rx="15" fill="#F4F4F5"/>
  <rect x="180" y="650" width="120" height="20" rx="4" fill="#18181B"/>
  <rect x="180" y="680" width="340" height="16" rx="4" fill="#71717A"/>
  
  <rect x="140" y="720" width="520" height="1" fill="#E4E4E7"/>
  
  <rect x="140" y="750" width="30" height="30" rx="15" fill="#F4F4F5"/>
  <rect x="180" y="750" width="180" height="20" rx="4" fill="#18181B"/>
  <rect x="180" y="780" width="320" height="16" rx="4" fill="#71717A"/>
  
  <!-- Job Posting Label -->
  <rect x="150" y="50" width="500" height="60" rx="8" fill="#18181B"/>
  <rect x="200" y="70" width="400" height="20" rx="4" fill="white"/>
</svg> 