<svg width="18" height="18" viewBox="0 0 18 18" fill="none" xmlns="http://www.w3.org/2000/svg">
<path d="M10.8819 4.54767C10.7186 4.71424 10.637 4.91415 10.637 5.1474C10.637 5.38065 10.7186 5.58055 10.8819 5.74713L12.2527 7.11793C12.4193 7.28121 12.6192 7.36284 12.8525 7.36284C13.0857 7.36284 13.2856 7.28121 13.4522 7.11793L16.6822 3.88797C17.1232 4.86264 17.2479 5.87622 17.0561 6.92872C16.8643 7.98121 16.3902 8.88569 15.6337 9.64217C14.8772 10.3986 13.9728 10.8728 12.9203 11.0645C11.8678 11.2563 10.8542 11.1317 9.87952 10.6906L3.95935 16.6108C3.60447 16.9657 3.17609 17.1431 2.67422 17.1431C2.17234 17.1431 1.74396 16.9657 1.38908 16.6108C1.0342 16.2559 0.856765 15.8275 0.856765 15.3256C0.856765 14.8238 1.0342 14.3954 1.38908 14.0405L7.30926 8.12034C6.8682 7.14567 6.74355 6.13208 6.93532 5.07959C7.12708 4.0271 7.60121 3.12261 8.35768 2.36613C9.11416 1.60966 10.0186 1.13554 11.0711 0.943769C12.1236 0.752002 13.1372 0.876649 14.1119 1.31771L10.8905 4.5391L10.8819 4.54767Z" stroke="#09090B" stroke-width="1.66667" stroke-linecap="round" stroke-linejoin="round"/>
</svg>
