<svg width="43" height="43" viewBox="0 0 43 43" fill="none" xmlns="http://www.w3.org/2000/svg">
<path d="M25.9957 10.8642C25.6056 11.2622 25.4106 11.7397 25.4106 12.2969C25.4106 12.8541 25.6056 13.3317 25.9957 13.7296L29.2704 17.0043C29.6683 17.3944 30.1459 17.5894 30.7031 17.5894C31.2603 17.5894 31.7378 17.3944 32.1358 17.0043L39.8518 9.28829C40.9054 11.6167 41.2032 14.038 40.7451 16.5523C40.287 19.0666 39.1543 21.2273 37.3472 23.0344C35.5401 24.8416 33.3793 25.9742 30.8651 26.4323C28.3508 26.8904 25.9294 26.5927 23.6011 25.539L9.45841 39.6817C8.61065 40.5294 7.5873 40.9533 6.38838 40.9533C5.18945 40.9533 4.16611 40.5294 3.31834 39.6816C2.47058 38.8339 2.04669 37.8105 2.04669 36.6116C2.04669 35.4127 2.47058 34.3893 3.31834 33.5416L17.461 19.3989C16.4073 17.0706 16.1096 14.6492 16.5677 12.1349C17.0258 9.62065 18.1584 7.45993 19.9656 5.65279C21.7727 3.84565 23.9334 2.71303 26.4477 2.25492C28.962 1.79681 31.3833 2.09458 33.7117 3.14822L26.0161 10.8438L25.9957 10.8642Z" stroke="#18181B" stroke-width="4" stroke-linecap="round" stroke-linejoin="round"/>
</svg>
