<svg width="15" height="15" viewBox="0 0 15 15" fill="none" xmlns="http://www.w3.org/2000/svg">
<path d="M13.9386 6.85201L7.67079 13.1199C6.87121 13.9189 5.90624 14.3183 4.77586 14.3181C3.64549 14.3179 2.68065 13.9182 1.88135 13.1189C1.08206 12.3196 0.682308 11.3547 0.682113 10.2244C0.681918 9.09398 1.08133 8.129 1.88035 7.32943L7.72535 1.48443C8.25829 0.950183 8.90207 0.68266 9.65669 0.681864C10.4113 0.681068 11.0557 0.947231 11.5897 1.48036C12.1238 2.01348 12.3911 2.65735 12.3916 3.41197C12.3922 4.16659 12.1258 4.81084 11.5925 5.34472L5.73382 11.1897C5.46732 11.4562 5.14563 11.5895 4.76875 11.5895C4.39186 11.5895 4.07017 11.4562 3.80368 11.1897C3.53718 10.9232 3.40393 10.6015 3.40393 10.2247C3.40393 9.84777 3.53718 9.52608 3.80368 9.25958L9.59411 3.47596" stroke="black" stroke-width="1.33333" stroke-linecap="round" stroke-linejoin="round"/>
</svg>
